<svg width="12" height="13" viewBox="0 0 12 13" fill="none" xmlns="http://www.w3.org/2000/svg">
<path d="M2.86999 8.5C2.92499 8.255 2.82499 7.905 2.64999 7.73L1.43499 6.515C1.05499 6.135 0.904991 5.73 1.01499 5.38C1.12999 5.03 1.48499 4.79 2.01499 4.7L3.57499 4.44C3.79999 4.4 4.07499 4.2 4.17999 3.995L5.03999 2.27C5.28999 1.775 5.62999 1.5 5.99999 1.5C6.36999 1.5 6.70999 1.775 6.95999 2.27L7.81999 3.995C7.88499 4.125 8.01999 4.25 8.16499 4.335L2.77999 9.72C2.70999 9.79 2.58999 9.725 2.60999 9.625L2.86999 8.5Z" fill="white"/>
<path d="M9.34999 7.73001C9.16999 7.91001 9.06999 8.25501 9.12999 8.50001L9.47499 10.005C9.61999 10.63 9.52999 11.1 9.21999 11.325C9.09499 11.415 8.94499 11.46 8.76999 11.46C8.51499 11.46 8.21499 11.365 7.88499 11.17L6.41999 10.3C6.18999 10.165 5.80999 10.165 5.57999 10.3L4.11499 11.17C3.55999 11.495 3.08499 11.55 2.77999 11.325C2.66499 11.24 2.57999 11.125 2.52499 10.975L8.60499 4.89501C8.83499 4.66501 9.15999 4.56001 9.47499 4.61501L9.97999 4.70001C10.51 4.79001 10.865 5.03001 10.98 5.38001C11.09 5.73001 10.94 6.13501 10.56 6.51501L9.34999 7.73001Z" fill="white"/>
</svg>
